<svg width="248" height="70" viewBox="0 0 248 70" fill="none" xmlns="http://www.w3.org/2000/svg">
<path d="M14.8084 0C16.4536 0 17.8894 0.0551638 19.1158 0.165491C20.3722 0.275819 21.5238 0.441309 22.5707 0.661962C23.6476 0.882615 24.7244 1.19521 25.8013 1.59974L25.0834 10.2052C23.9467 10.1685 22.8549 10.1501 21.808 10.1501C20.7909 10.1501 19.729 10.1501 18.6223 10.1501C17.5155 10.1133 16.2592 10.0949 14.8533 10.0949C13.9858 10.0949 13.2679 10.242 12.6996 10.5362C12.1313 10.7936 11.6826 11.2901 11.3535 12.0256C11.0245 12.7244 10.7852 13.7173 10.6356 15.0044C10.516 16.2548 10.4562 17.8546 10.4562 19.8037C10.4562 22.378 10.5758 24.3638 10.8151 25.7613C11.0544 27.122 11.4582 28.0782 12.0266 28.6298C12.5949 29.1447 13.3876 29.4021 14.4046 29.4021C15.0627 29.4021 15.6609 29.3837 16.1994 29.3469C16.7677 29.2734 17.2762 29.1814 17.7249 29.0711C18.1736 28.9608 18.5325 28.8688 18.8017 28.7953L19.744 33.8152C19.385 34.5507 18.7868 35.3781 17.9492 36.2975C17.1416 37.2169 16.1096 38.0076 14.8533 38.6695C13.597 39.2947 12.1462 39.6073 10.501 39.6073C8.13794 39.6073 6.19362 38.9637 4.66808 37.6766C3.14254 36.3527 2.02083 34.2381 1.30292 31.3328C0.585024 28.4275 0.226074 24.5845 0.226074 19.8037C0.226074 14.9125 0.689718 11.0327 1.61701 8.16418C2.57421 5.25891 4.1147 3.18109 6.23849 1.93072C8.39219 0.643574 11.2488 0 14.8084 0ZM27.1025 17.6818V38.835H19.9235L18.6671 32.9326L17.7249 29.0711C24.3043 28.4142 17.9842 21.8415 17.2006 19.0964C21.7566 16.6209 27.1025 17.6818 27.1025 17.6818Z" fill="white"/>
<path d="M21.5226 12.5139C21.4348 13.1284 21.3084 13.8845 21.1773 14.6123M20.7241 16.9053C20.8359 16.4207 21.0104 15.5394 21.1773 14.6123M21.1233 17.9033L21.1773 14.6123M20.7241 18.1029L21.5226 17.9033" stroke="url(#paint0_linear_91_350)" stroke-linecap="round"/>
<path d="M20.737 28.6446C19.1276 26.1691 18.9688 25.8155 17.3311 22.9864L13.5386 23.2141C13.5386 23.2141 14.2888 18.4833 14.7362 15.7078L15.5347 19.3007L19.1276 18.9883" stroke="url(#paint1_linear_91_350)" stroke-width="2.5" stroke-linecap="round" stroke-linejoin="round"/>
<ellipse cx="15.3348" cy="12.9133" rx="1.39726" ry="1.59686" fill="#D175FF"/>
<path d="M10.835 13.4382C12.1196 17.3282 12.5815 22.8405 12.1196 24.287H13.8517M13.8517 24.287H15.5838M13.8517 24.287V29.4996M13.8517 29.4996C13.3609 29.4996 12.3505 29.4996 12.1196 29.4996M13.8517 29.4996C14.2045 29.4996 15.1796 29.4996 15.7859 29.7055" stroke="url(#paint2_linear_91_350)" stroke-width="2" stroke-linecap="round" stroke-linejoin="round"/>
<path d="M62.0631 4.93678C62.9213 4.93678 63.6804 5.18433 64.3405 5.67942C65.0007 6.17451 65.4462 6.85114 65.6773 7.7093L74.5394 39.0981H63.5979L58.4489 16.8685C58.3169 16.2414 58.2014 15.5978 58.1024 14.9376C58.0034 14.2445 57.9208 13.5844 57.8548 12.9573H56.5181C56.4521 13.5844 56.3696 14.2445 56.2705 14.9376C56.1715 15.5978 56.056 16.2414 55.924 16.8685L50.775 39.0981H39.8335L48.6956 7.7093C48.9267 6.85114 49.3723 6.17451 50.0324 5.67942C50.6925 5.18433 51.4516 4.93678 52.3098 4.93678H62.0631ZM66.2714 24.1958V31.7212H48.1015V24.1958H66.2714Z" fill="white"/>
<path d="M124.992 4.93678C127.401 4.93678 128.655 6.17451 128.754 8.64997L129.942 39.0981H120.288L119.248 12.9573H118.506L115.139 30.3845C114.809 32.5629 113.456 33.6521 111.079 33.6521H105.534C103.191 33.6521 101.821 32.5629 101.425 30.3845L98.009 12.9573H97.2664L96.4247 39.0981H86.7704L87.9587 8.64997C88.0577 6.17451 89.3119 4.93678 91.7214 4.93678H100.98C103.29 4.93678 104.643 6.04249 105.039 8.2539L107.515 21.8194C107.647 22.6446 107.746 23.4862 107.812 24.3444C107.911 25.2025 107.993 26.0607 108.059 26.9188H108.505C108.604 26.0607 108.686 25.2025 108.753 24.3444C108.852 23.4862 108.967 22.6446 109.099 21.8194L111.426 8.2539C111.822 6.04249 113.192 4.93678 115.535 4.93678H124.992Z" fill="white"/>
<path d="M155.914 4.93678V39.0981H145.269V4.93678H155.914Z" fill="white"/>
<path d="M203.28 4.93678V35.3849C203.28 37.8604 202.042 39.0981 199.567 39.0981H195.458C194.335 39.0981 193.494 38.834 192.933 38.306C192.405 37.7779 191.86 37.0022 191.299 35.979L183.872 24.2454C183.41 23.3872 182.981 22.463 182.585 21.4728C182.222 20.4496 181.892 19.4265 181.595 18.4033H181.248C181.414 19.4265 181.529 20.4827 181.595 21.5719C181.694 22.6281 181.744 23.6512 181.744 24.6414V39.0981H171.842V8.64997C171.842 6.17451 173.079 4.93678 175.555 4.93678H179.664C180.786 4.93678 181.612 5.20083 182.14 5.72893C182.668 6.25703 183.229 7.03267 183.823 8.05586L190.952 19.2449C191.414 20.0701 191.86 20.9777 192.289 21.9679C192.751 22.9581 193.18 23.9978 193.576 25.087H193.923C193.791 24.0308 193.675 22.9911 193.576 21.9679C193.51 20.9447 193.477 19.9216 193.477 18.8984L193.428 4.93678H203.28Z" fill="white"/>
<path d="M234.209 4.24365C236.024 4.24365 237.609 4.29316 238.962 4.39218C240.348 4.4912 241.619 4.63973 242.774 4.83776C243.962 5.0358 245.15 5.31635 246.339 5.67942L245.547 13.4028C244.292 13.3698 243.088 13.3533 241.932 13.3533C240.81 13.3533 239.638 13.3533 238.417 13.3533C237.196 13.3203 235.81 13.3038 234.258 13.3038C233.301 13.3038 232.509 13.4359 231.882 13.6999C231.255 13.9309 230.76 14.3765 230.397 15.0366C230.034 15.6638 229.77 16.5549 229.605 17.7101C229.473 18.8324 229.407 20.2681 229.407 22.0174C229.407 24.3279 229.539 26.1102 229.803 27.3644C230.067 28.5857 230.512 29.4438 231.139 29.9389C231.766 30.401 232.641 30.632 233.763 30.632C234.489 30.632 235.15 30.6155 235.744 30.5825C236.371 30.5165 236.932 30.434 237.427 30.335C237.922 30.236 238.318 30.1534 238.615 30.0874L239.655 34.5928C239.259 35.2529 238.599 35.9955 237.675 36.8207C236.783 37.6458 235.645 38.3555 234.258 38.9496C232.872 39.5107 231.271 39.7912 229.456 39.7912C226.849 39.7912 224.703 39.2136 223.02 38.0584C221.337 36.8702 220.099 34.9723 219.307 32.3649C218.515 29.7574 218.118 26.3082 218.118 22.0174C218.118 17.6276 218.63 14.1455 219.653 11.571C220.709 8.96353 222.409 7.09868 224.753 5.97647C227.129 4.82126 230.281 4.24365 234.209 4.24365ZM247.774 19.443V39.0981H239.853L238.467 33.8006L237.477 31.9688V19.443H247.774Z" fill="white"/>
<path d="M98.6138 67.36C97.7498 67.36 97.0138 67.264 96.4058 67.072C95.8138 66.896 95.2298 66.672 94.6538 66.4V64.024C95.0698 64.28 95.4778 64.512 95.8778 64.72C96.2778 64.912 96.6938 65.064 97.1258 65.176C97.5738 65.288 98.0698 65.344 98.6138 65.344C99.3018 65.344 99.8378 65.2 100.222 64.912C100.622 64.624 100.822 64.264 100.822 63.832C100.822 63.464 100.694 63.176 100.438 62.968C100.198 62.76 99.8858 62.584 99.5018 62.44C99.1178 62.296 98.7178 62.152 98.3018 62.008C97.8698 61.896 97.4378 61.768 97.0058 61.624C96.5738 61.464 96.1738 61.256 95.8058 61C95.4538 60.728 95.1658 60.384 94.9418 59.968C94.7338 59.552 94.6298 59.04 94.6298 58.432C94.6298 57.76 94.7658 57.192 95.0378 56.728C95.3098 56.248 95.6618 55.864 96.0938 55.576C96.5418 55.272 97.0298 55.056 97.5578 54.928C98.1018 54.784 98.6298 54.712 99.1418 54.712C99.9898 54.728 100.678 54.832 101.206 55.024C101.75 55.216 102.278 55.448 102.79 55.72L102.814 57.88C102.238 57.576 101.694 57.312 101.182 57.088C100.67 56.864 100.078 56.752 99.4058 56.752C98.7818 56.752 98.2618 56.872 97.8458 57.112C97.4298 57.336 97.2218 57.672 97.2218 58.12C97.2218 58.504 97.3338 58.808 97.5578 59.032C97.7978 59.256 98.1018 59.432 98.4698 59.56C98.8538 59.688 99.2618 59.816 99.6938 59.944C100.094 60.072 100.51 60.208 100.942 60.352C101.374 60.48 101.774 60.672 102.142 60.928C102.51 61.184 102.806 61.52 103.03 61.936C103.27 62.352 103.39 62.896 103.39 63.568C103.374 64.464 103.134 65.192 102.67 65.752C102.222 66.312 101.63 66.72 100.894 66.976C100.158 67.232 99.3978 67.36 98.6138 67.36ZM111.833 67.312C110.745 67.312 109.881 67.024 109.241 66.448C108.617 65.872 108.305 65.024 108.305 63.904V57.04H106.361V54.952H108.305V51.592H110.897V54.952H113.825V57.04H110.897V63.4C110.897 63.96 110.993 64.384 111.185 64.672C111.393 64.944 111.769 65.08 112.313 65.08C112.585 65.08 112.857 65.048 113.129 64.984C113.401 64.904 113.633 64.808 113.825 64.696V66.928C113.537 67.056 113.209 67.152 112.841 67.216C112.489 67.28 112.153 67.312 111.833 67.312ZM123.108 67.36C121.156 67.36 119.7 66.808 118.74 65.704C117.796 64.6 117.324 63.024 117.324 60.976C117.324 58.8 117.812 57.208 118.788 56.2C119.78 55.176 121.204 54.664 123.06 54.664C124.388 54.664 125.484 54.912 126.348 55.408C127.212 55.888 127.852 56.6 128.268 57.544C128.684 58.488 128.892 59.632 128.892 60.976C128.892 63.008 128.388 64.584 127.38 65.704C126.388 66.808 124.964 67.36 123.108 67.36ZM123.084 65.224C123.9 65.224 124.548 65.048 125.028 64.696C125.508 64.328 125.852 63.824 126.06 63.184C126.284 62.544 126.396 61.808 126.396 60.976C126.396 60.048 126.284 59.272 126.06 58.648C125.836 58.024 125.484 57.56 125.004 57.256C124.524 56.936 123.884 56.776 123.084 56.776C122.284 56.776 121.644 56.944 121.164 57.28C120.684 57.616 120.34 58.096 120.132 58.72C119.924 59.344 119.82 60.096 119.82 60.976C119.82 62.304 120.068 63.344 120.564 64.096C121.06 64.848 121.9 65.224 123.084 65.224ZM133.023 67V56.056C133.231 55.928 133.615 55.752 134.175 55.528C134.735 55.304 135.399 55.112 136.167 54.952C136.935 54.776 137.711 54.688 138.495 54.688C138.895 54.688 139.223 54.72 139.479 54.784C139.735 54.848 139.951 54.92 140.127 55V57.016C139.759 56.968 139.375 56.936 138.975 56.92C138.575 56.888 138.175 56.888 137.775 56.92C137.375 56.936 136.983 56.968 136.599 57.016C136.215 57.064 135.863 57.112 135.543 57.16V67H133.023ZM148.337 67.36C147.153 67.36 146.121 67.12 145.241 66.64C144.377 66.16 143.705 65.448 143.225 64.504C142.761 63.56 142.529 62.408 142.529 61.048C142.529 58.952 143.017 57.368 143.993 56.296C144.985 55.208 146.361 54.664 148.121 54.664C149.417 54.664 150.465 54.952 151.265 55.528C152.065 56.104 152.641 56.912 152.993 57.952C153.361 58.976 153.537 60.176 153.521 61.552H144.041L143.969 59.68H151.601L151.001 60.28C150.953 59.048 150.697 58.152 150.233 57.592C149.769 57.016 149.041 56.728 148.049 56.728C147.409 56.728 146.865 56.864 146.417 57.136C145.969 57.392 145.625 57.84 145.385 58.48C145.161 59.104 145.049 59.968 145.049 61.072C145.049 62.416 145.361 63.44 145.985 64.144C146.609 64.832 147.529 65.176 148.745 65.176C149.289 65.176 149.793 65.128 150.257 65.032C150.737 64.936 151.177 64.816 151.577 64.672C151.977 64.512 152.321 64.36 152.609 64.216V66.544C152.049 66.784 151.417 66.976 150.713 67.12C150.009 67.28 149.217 67.36 148.337 67.36Z" fill="white"/>
<defs>
<linearGradient id="paint0_linear_91_350" x1="21.1233" y1="12.5139" x2="21.1233" y2="18.1029" gradientUnits="userSpaceOnUse">
<stop stop-color="#FD2BCE"/>
<stop offset="1" stop-color="#D175FF"/>
</linearGradient>
<linearGradient id="paint1_linear_91_350" x1="16.3331" y1="15.7078" x2="16.3331" y2="29.6803" gradientUnits="userSpaceOnUse">
<stop stop-color="#D175FF" stop-opacity="0.9"/>
<stop offset="1" stop-color="#9747FF" stop-opacity="0.9"/>
</linearGradient>
<linearGradient id="paint2_linear_91_350" x1="11.5422" y1="12.8205" x2="15.3139" y2="31.9441" gradientUnits="userSpaceOnUse">
<stop stop-color="#001E4A"/>
<stop offset="1" stop-color="#392160"/>
</linearGradient>
</defs>
</svg>
