<svg width="28" height="40" viewBox="0 0 28 40" fill="none" xmlns="http://www.w3.org/2000/svg">
<path d="M14.8084 0C16.4536 0 17.8894 0.0551638 19.1158 0.165491C20.3722 0.275819 21.5238 0.441309 22.5707 0.661962C23.6476 0.882615 24.7244 1.19521 25.8013 1.59974L25.0834 10.2052C23.9467 10.1685 22.8549 10.1501 21.808 10.1501C20.7909 10.1501 19.729 10.1501 18.6223 10.1501C17.5155 10.1133 16.2592 10.0949 14.8533 10.0949C13.9858 10.0949 13.2679 10.242 12.6996 10.5362C12.1313 10.7936 11.6826 11.2901 11.3535 12.0256C11.0245 12.7244 10.7852 13.7173 10.6356 15.0044C10.516 16.2548 10.4562 17.8546 10.4562 19.8037C10.4562 22.378 10.5758 24.3638 10.8151 25.7613C11.0544 27.122 11.4582 28.0782 12.0266 28.6298C12.5949 29.1447 13.3876 29.4021 14.4046 29.4021C15.0627 29.4021 15.6609 29.3837 16.1994 29.3469C16.7677 29.2734 17.2762 29.1814 17.7249 29.0711C18.1736 28.9608 18.5325 28.8688 18.8017 28.7953L19.744 33.8152C19.385 34.5507 18.7868 35.3781 17.9492 36.2975C17.1416 37.2169 16.1096 38.0076 14.8533 38.6695C13.597 39.2947 12.1462 39.6073 10.501 39.6073C8.13794 39.6073 6.19362 38.9637 4.66808 37.6766C3.14254 36.3527 2.02083 34.2381 1.30292 31.3328C0.585024 28.4275 0.226074 24.5845 0.226074 19.8037C0.226074 14.9125 0.689718 11.0327 1.61701 8.16418C2.57421 5.25891 4.1147 3.18109 6.23849 1.93072C8.39219 0.643574 11.2488 0 14.8084 0ZM27.1025 17.6818V38.835H19.9235L18.6671 32.9326L17.7249 29.0711C24.3043 28.4142 17.9842 21.8415 17.2006 19.0964C21.7566 16.6209 27.1025 17.6818 27.1025 17.6818Z" fill="white"/>
<path d="M21.5226 12.5139C21.4348 13.1284 21.3084 13.8845 21.1773 14.6123M20.7241 16.9053C20.8359 16.4207 21.0104 15.5394 21.1773 14.6123M21.1233 17.9033L21.1773 14.6123M20.7241 18.1029L21.5226 17.9033" stroke="url(#paint0_linear_89_323)" stroke-linecap="round"/>
<path d="M20.737 28.6446C19.1276 26.1691 18.9688 25.8155 17.3311 22.9864L13.5386 23.2141C13.5386 23.2141 14.2888 18.4833 14.7362 15.7078L15.5347 19.3007L19.1276 18.9883" stroke="url(#paint1_linear_89_323)" stroke-width="2.5" stroke-linecap="round" stroke-linejoin="round"/>
<ellipse cx="15.3348" cy="12.9133" rx="1.39726" ry="1.59686" fill="#D175FF"/>
<path d="M10.835 13.4382C12.1196 17.3282 12.5815 22.8405 12.1196 24.287H13.8517M13.8517 24.287H15.5838M13.8517 24.287V29.4996M13.8517 29.4996C13.3609 29.4996 12.3505 29.4996 12.1196 29.4996M13.8517 29.4996C14.2045 29.4996 15.1796 29.4996 15.7859 29.7055" stroke="url(#paint2_linear_89_323)" stroke-width="2" stroke-linecap="round" stroke-linejoin="round"/>
<defs>
<linearGradient id="paint0_linear_89_323" x1="21.1233" y1="12.5139" x2="21.1233" y2="18.1029" gradientUnits="userSpaceOnUse">
<stop stop-color="#FD2BCE"/>
<stop offset="1" stop-color="#D175FF"/>
</linearGradient>
<linearGradient id="paint1_linear_89_323" x1="16.3331" y1="15.7078" x2="16.3331" y2="29.6803" gradientUnits="userSpaceOnUse">
<stop stop-color="#D175FF" stop-opacity="0.9"/>
<stop offset="1" stop-color="#9747FF" stop-opacity="0.9"/>
</linearGradient>
<linearGradient id="paint2_linear_89_323" x1="11.5422" y1="12.8205" x2="15.3139" y2="31.9441" gradientUnits="userSpaceOnUse">
<stop stop-color="#001E4A"/>
<stop offset="1" stop-color="#392160"/>
</linearGradient>
</defs>
</svg>
